<?xml version="1.0" encoding="UTF-8" standalone="no"?><!DOCTYPE svg PUBLIC "-//W3C//DTD SVG 1.1//EN" "http://www.w3.org/Graphics/SVG/1.1/DTD/svg11.dtd"><svg width="100%" height="100%" viewBox="0 0 467 467" version="1.1" xmlns="http://www.w3.org/2000/svg" xmlns:xlink="http://www.w3.org/1999/xlink" xml:space="preserve" xmlns:serif="http://www.serif.com/" style="fill-rule:evenodd;clip-rule:evenodd;stroke-linecap:round;stroke-linejoin:round;stroke-miterlimit:1.5;"><rect id="project_icon" x="-0" y="0" width="466.997" height="466.997" style="fill:none;"/><path id="_-Abgerundetes-Rechteck-" serif:id="(Abgerundetes Rechteck)" d="M466.997,116.749c-0,-64.435 -52.314,-116.749 -116.75,-116.749l-233.498,0c-64.435,0 -116.749,52.314 -116.749,116.749l0,233.498c0,64.436 52.314,116.75 116.749,116.75l233.498,-0c64.436,-0 116.75,-52.314 116.75,-116.75l-0,-233.498Z" style="fill:#8da5f3;"/><path d="M233.498,28.69c113.037,0 204.808,91.772 204.808,204.808c0,113.037 -91.771,204.808 -204.808,204.808c-113.036,0 -204.808,-91.771 -204.808,-204.808c0,-113.036 91.772,-204.808 204.808,-204.808Zm0,58.334c80.842,-0 146.475,65.633 146.475,146.474c-0,80.842 -65.633,146.475 -146.475,146.475c-80.841,-0 -146.474,-65.633 -146.474,-146.475c-0,-80.841 65.633,-146.474 146.474,-146.474Z" style="fill:#fff;"/><path d="M304.351,162.28l-60.959,159.704c-4.766,-62.161 -38.199,-94.538 -98.745,-98.745l159.704,-60.959Z" style="fill:#fff;stroke:#fff;stroke-width:33.33px;"/></svg>